<?xml version="1.0" standalone="no"?>
<!DOCTYPE svg PUBLIC "-//W3C//DTD SVG 20010904//EN"
 "http://www.w3.org/TR/2001/REC-SVG-20010904/DTD/svg10.dtd">
<svg version="1.0" xmlns="http://www.w3.org/2000/svg"
 width="520.000000pt" height="520.000000pt" viewBox="0 0 520.000000 520.000000"
 preserveAspectRatio="xMidYMid meet">
<metadata>
Created by potrace 1.11, written by Peter Selinger 2001-2013
</metadata>
<g transform="translate(0.000000,520.000000) scale(0.100000,-0.100000)"
fill="#000000" stroke="none">
<path d="M0 2600 l0 -2600 2600 0 2600 0 0 2600 0 2600 -2600 0 -2600 0 0
-2600z m4226 1821 c22 -10 50 -30 61 -45 18 -23 28 -26 79 -26 l58 0 -26 -27
c-34 -37 -54 -79 -62 -133 -4 -25 -13 -55 -21 -66 -14 -21 -13 -22 46 -26 110
-8 140 -73 83 -179 -103 -188 -733 -528 -980 -529 -46 0 -74 12 -74 32 0 4 9
8 21 8 28 0 239 70 239 80 0 3 -48 -6 -107 -22 -115 -31 -303 -50 -303 -30 0
5 30 15 68 22 37 6 108 22 157 36 126 35 127 35 122 40 -3 3 -52 -4 -110 -15
-177 -34 -364 -40 -317 -11 8 6 31 10 51 10 41 0 162 21 289 51 l85 20 28 59
c49 106 207 241 388 332 l82 41 -33 25 c-39 30 -80 113 -80 162 0 84 40 154
109 190 46 24 95 25 147 1z m449 -587 c36 -59 43 -79 33 -85 -7 -5 -693 -425
-1525 -935 l-1511 -927 50 -81 c39 -62 422 -682 444 -718 2 -3 -29 -27 -71
-52 l-74 -45 -95 152 c-51 84 -162 262 -245 397 -84 135 -155 246 -159 248 -6
2 -483 -286 -697 -420 -13 -8 -107 143 -97 154 4 3 783 482 1732 1064 949 581
1822 1117 1940 1190 118 73 218 133 222 133 3 1 27 -33 53 -75z m-1811 9 c-39
-170 -100 -484 -95 -487 3 -2 118 -34 255 -70 238 -63 265 -72 255 -79 -25
-21 -130 -77 -143 -77 -9 0 -100 23 -203 50 -103 28 -188 50 -189 50 -2 0 30
-53 70 -117 40 -65 75 -123 79 -129 4 -7 -14 -24 -44 -43 -28 -17 -52 -31 -54
-31 -2 0 -61 93 -131 208 -70 114 -165 267 -211 341 -46 73 -82 134 -81 136 2
1 26 15 54 32 l51 31 79 -129 c43 -71 81 -129 84 -129 3 0 17 63 33 139 15 76
34 170 43 207 l15 69 67 42 c37 23 70 42 73 43 4 0 0 -26 -7 -57z m1963 -311
c49 -26 87 -70 74 -86 -20 -24 -102 -61 -109 -50 -22 34 -94 44 -142 19 -71
-37 -94 -126 -45 -179 30 -32 47 -32 177 -1 57 14 116 25 132 25 124 0 226
-117 213 -244 -17 -165 -178 -272 -338 -224 -42 12 -119 72 -119 91 0 7 23 25
50 40 l50 28 26 -20 c54 -43 155 -17 189 48 22 44 19 85 -11 120 -32 38 -47
39 -191 5 -135 -32 -183 -28 -245 19 -59 45 -88 105 -88 181 1 105 54 185 155
233 62 30 157 28 222 -5z m-2530 -116 c28 -8 56 -17 61 -20 7 -4 1 -29 -15
-65 l-26 -59 -40 14 c-95 33 -195 7 -274 -71 -40 -41 -55 -65 -68 -110 -32
-108 -4 -213 76 -294 70 -69 198 -100 286 -68 93 35 171 126 181 213 l5 44 65
0 65 0 -6 -55 c-12 -122 -105 -248 -226 -308 -61 -30 -72 -32 -171 -32 -102 0
-109 1 -182 38 -91 44 -152 107 -200 205 -31 62 -33 73 -32 167 0 79 5 112 22
155 77 192 283 298 479 246z m2019 -140 l31 -53 -153 -94 c-85 -52 -154 -98
-154 -103 0 -6 61 -108 101 -168 3 -5 68 30 145 77 76 48 146 91 156 96 14 8
22 2 43 -32 15 -22 28 -46 31 -53 3 -9 -33 -37 -98 -77 -57 -34 -126 -78 -155
-96 l-52 -33 55 -87 c30 -48 56 -88 58 -90 2 -2 72 39 156 91 84 53 156 93
161 91 16 -11 60 -97 53 -104 -37 -32 -408 -251 -415 -244 -4 4 -100 158 -213
341 l-205 333 47 29 c26 16 119 74 207 129 88 55 162 100 165 100 3 0 19 -23
36 -53z m-2613 -436 c81 -131 154 -255 162 -274 19 -45 19 -122 0 -176 -61
-174 -286 -231 -420 -106 -28 26 -97 127 -190 278 -80 130 -145 240 -145 245
0 8 85 63 98 63 4 -1 76 -113 160 -249 126 -207 158 -252 186 -265 96 -46 196
17 196 124 0 41 -15 69 -150 288 -83 133 -150 246 -150 250 1 8 80 60 95 61 6
1 77 -107 158 -239z m2117 195 c0 -2 38 -190 85 -416 80 -388 84 -412 68 -425
-27 -20 -53 -27 -66 -16 -7 5 -154 121 -327 257 -173 137 -317 250 -319 252
-8 6 19 29 62 52 l45 24 223 -176 c123 -97 224 -175 226 -174 1 1 -24 127 -56
280 l-58 279 51 33 c49 32 66 40 66 30z m-3026 -241 c286 -74 473 -369 412
-652 -8 -40 -31 -106 -50 -146 -52 -107 -123 -175 -296 -281 -80 -49 -154 -95
-166 -102 -20 -13 -31 3 -270 389 -136 222 -270 437 -296 479 l-47 77 147 90
c175 107 200 120 272 143 71 23 211 24 294 3z m2451 -165 c15 -22 28 -46 31
-53 3 -7 -56 -49 -148 -106 -84 -51 -154 -94 -156 -95 -4 -3 102 -170 111
-174 5 -2 75 38 157 89 83 50 154 89 159 86 11 -7 64 -97 59 -100 -1 -1 -68
-42 -148 -91 -80 -49 -149 -91 -153 -95 -4 -4 17 -48 48 -97 l57 -91 145 90
c80 49 151 92 158 94 7 3 27 -18 46 -47 18 -29 29 -54 23 -56 -5 -2 -100 -59
-209 -127 -151 -94 -203 -122 -211 -113 -6 7 -102 160 -213 341 -155 250 -200
331 -190 337 8 5 100 62 204 128 105 66 193 120 197 120 4 1 19 -17 33 -40z
m-489 -407 c39 -64 133 -217 209 -340 75 -123 136 -224 134 -225 -51 -34 -91
-57 -98 -57 -9 0 -421 660 -421 674 0 6 91 66 100 65 3 0 37 -52 76 -117z
m-93 -348 c109 -175 202 -326 207 -336 8 -13 0 -22 -40 -48 -27 -17 -53 -29
-58 -27 -4 3 -45 67 -91 141 -46 75 -86 136 -88 136 -7 0 -203 -121 -203 -125
0 -2 38 -65 85 -140 47 -75 85 -140 85 -144 0 -5 -23 -22 -50 -39 l-50 -31
-14 22 c-58 92 -406 657 -406 660 0 2 23 18 52 36 39 25 53 29 59 19 5 -7 44
-70 86 -140 43 -70 82 -128 87 -128 5 0 53 27 107 61 l98 60 -51 82 c-28 45
-68 110 -89 144 l-38 62 47 30 c26 16 51 28 57 27 5 -1 99 -146 208 -322z"/>
<path d="M565 2626 c-59 -14 -47 -9 -152 -72 -46 -27 -83 -52 -83 -57 0 -6
330 -547 387 -633 14 -22 14 -22 91 25 134 81 197 160 223 283 23 107 -7 231
-78 325 -42 55 -133 109 -213 127 -80 19 -107 19 -175 2z"/>
</g>
</svg>
